<svg width="18" height="18" viewBox="0 0 18 18" fill="none" xmlns="http://www.w3.org/2000/svg">
<path d="M6.79235 15.75V8.518C6.79235 7.96572 7.24007 7.518 7.79235 7.518H10.336C10.8883 7.518 11.336 7.96571 11.336 8.518V15.75M6.79235 15.75L6.79335 12.7603C6.79354 12.2079 6.34577 11.76 5.79335 11.76H3.25C2.69772 11.76 2.25 12.2077 2.25 12.76V14.75C2.25 15.3023 2.69771 15.75 3.25 15.75H6.79235ZM6.79235 15.75H11.336M11.336 15.75V3.25C11.336 2.69772 11.7838 2.25 12.336 2.25H14.75C15.3023 2.25 15.75 2.69772 15.75 3.25V14.75C15.75 15.3023 15.3023 15.75 14.75 15.75H11.336Z" stroke="#4D16A7" stroke-width="1.5" stroke-linecap="round" stroke-linejoin="round"/>
</svg>
