<svg width="12" height="12" viewBox="0 0 12 12" fill="none" xmlns="http://www.w3.org/2000/svg">
<path d="M7.77939 7.59934C8.04136 7.68667 8.32452 7.54509 8.41184 7.28311C8.49917 7.02114 8.35759 6.73798 8.09561 6.65066L7.77939 7.59934ZM6.25 6.5625H5.75C5.75 6.77772 5.88771 6.96878 6.09189 7.03684L6.25 6.5625ZM6.75 4.21043C6.75 3.93429 6.52614 3.71043 6.25 3.71043C5.97386 3.71043 5.75 3.93429 5.75 4.21043H6.75ZM8.09561 6.65066L6.40811 6.08816L6.09189 7.03684L7.77939 7.59934L8.09561 6.65066ZM6.75 6.5625V4.21043H5.75V6.5625H6.75ZM10.25 6C10.25 8.20914 8.45914 10 6.25 10V11C9.01142 11 11.25 8.76142 11.25 6H10.25ZM6.25 10C4.04086 10 2.25 8.20914 2.25 6H1.25C1.25 8.76142 3.48858 11 6.25 11V10ZM2.25 6C2.25 3.79086 4.04086 2 6.25 2V1C3.48858 1 1.25 3.23858 1.25 6H2.25ZM6.25 2C8.45914 2 10.25 3.79086 10.25 6H11.25C11.25 3.23858 9.01142 1 6.25 1V2Z" fill="#FF018A"/>
</svg>
