<svg width="16" height="16" viewBox="0 0 16 16" fill="none" xmlns="http://www.w3.org/2000/svg">
<path d="M5.79235 14.75V7.518C5.79235 6.96572 6.24007 6.518 6.79235 6.518H9.33604C9.88832 6.518 10.336 6.96571 10.336 7.518V14.75M5.79235 14.75L5.79335 11.7603C5.79354 11.2079 5.34577 10.76 4.79335 10.76H2.25C1.69772 10.76 1.25 11.2077 1.25 11.76V13.75C1.25 14.3023 1.69771 14.75 2.25 14.75H5.79235ZM5.79235 14.75H10.336M10.336 14.75V2.25C10.336 1.69772 10.7838 1.25 11.336 1.25H13.75C14.3023 1.25 14.75 1.69772 14.75 2.25V13.75C14.75 14.3023 14.3023 14.75 13.75 14.75H10.336Z" stroke="#4D16A7" stroke-width="1.5" stroke-linecap="round" stroke-linejoin="round"/>
</svg>
