<svg width="249" height="167" viewBox="0 0 249 167" fill="none" xmlns="http://www.w3.org/2000/svg">
<path d="M47.4409 57.7437L41.4072 67.0387C38.6349 65.0818 37.1673 62.1466 28.1982 61.3312C26.2426 61.1534 19.3922 61.8204 18.7399 68.1802C18.0876 74.5399 27.709 76.6599 32.4381 78.1275C37.1673 79.5951 48.9086 83.0196 48.9086 95.9022C48.9086 108.785 38.6349 116.775 24.6106 117.101C13.3911 117.362 3.95458 110.579 0.638748 107.154L7.32477 98.6744C15.0218 106.241 32.0388 109.763 33.7427 99.3267C35.0473 91.3362 22.4906 90.7107 14.5 86.7702C10.5319 84.8134 2.7587 78.6493 3.411 69.6478C4.22637 58.3959 12.5431 51.0578 26.2413 51.0578C37.1999 51.0578 44.9404 55.515 47.4409 57.7437Z" fill="#8B5CF6"/>
<path d="M151.482 66.7126H140.719V53.0146H151.482V26.9233C151.482 23.0096 151.775 17.3347 154.906 11.5947C158.82 4.41955 165.18 0.342792 175.128 0.0166508C183.086 -0.244262 188.989 2.62578 190.946 4.09342L184.423 15.1822C183.444 14.0407 180.672 12.726 178.715 12.5731C168.279 11.7578 166.811 21.3789 166.811 28.8802V53.0146H186.543V66.7126H166.811V115.471H151.482V66.7126Z" fill="#8B5CF6"/>
<path d="M209.536 66.7126H198.773V53.0146H209.536V26.9233C209.536 23.0096 209.83 17.3348 212.961 11.5947C216.874 4.41955 223.234 0.342792 233.182 0.0166508C241.14 -0.244262 247.043 2.62578 249 4.09342L242.477 15.1822C241.499 14.0407 238.726 12.726 236.769 12.5731C226.333 11.7578 224.865 21.3789 224.865 28.8801V53.0146H244.597V66.7126H224.865V115.471H209.536V66.7126Z" fill="#8B5CF6"/>
<path fill-rule="evenodd" clip-rule="evenodd" d="M81.1972 95.2499L129.304 78.2906C128.271 71.0611 122.161 55.5911 105.984 51.547C85.7632 46.4918 61.7914 61.0051 62.6068 84.4872C63.4221 107.969 79.4033 115.96 94.5692 116.938C106.702 117.721 116.041 112.59 119.193 109.926L112.181 98.8375C109.463 100.849 102.429 104.708 96.0369 104.056C88.2093 103.257 82.5017 98.8375 81.1972 95.2499ZM112.181 73.3984L77.7726 85.7918C77.0116 79.7582 78.5554 66.843 90.8185 63.4511C103.082 60.0593 110.17 68.6694 112.181 73.3984Z" fill="#8B5CF6"/>
<path d="M5.52825 162.761H3.93866V151.546H0V150.151H9.44924V151.546H5.52825V162.761Z" fill="#8B5CF6"/>
<path d="M12.6931 153.277C12.6931 153.5 12.6814 153.73 12.6578 153.966C12.646 154.201 12.6284 154.413 12.6048 154.601H12.7108C12.911 154.272 13.1641 154.001 13.4703 153.789C13.7764 153.577 14.1179 153.418 14.4947 153.312C14.8715 153.194 15.26 153.135 15.6604 153.135C16.4257 153.135 17.0616 153.259 17.5679 153.506C18.086 153.742 18.4745 154.113 18.7336 154.619C18.9926 155.125 19.1222 155.785 19.1222 156.597V162.761H17.5856V156.703C17.5856 155.938 17.4148 155.367 17.0734 154.99C16.7319 154.613 16.1961 154.425 15.4661 154.425C14.7596 154.425 14.2062 154.56 13.8059 154.831C13.4055 155.09 13.117 155.479 12.9404 155.997C12.7756 156.503 12.6931 157.127 12.6931 157.869V162.761H11.1389V149.338H12.6931V153.277Z" fill="#8B5CF6"/>
<path d="M25.713 153.118C26.5255 153.118 27.2202 153.294 27.7972 153.648C28.3859 154.001 28.8333 154.501 29.1395 155.149C29.4574 155.785 29.6164 156.532 29.6164 157.392V158.328H23.1344C23.1579 159.4 23.4287 160.218 23.9468 160.783C24.4767 161.336 25.2126 161.613 26.1546 161.613C26.7551 161.613 27.285 161.56 27.7442 161.454C28.2152 161.336 28.6979 161.172 29.1925 160.96V162.32C28.7097 162.532 28.2328 162.685 27.7618 162.779C27.2909 162.885 26.7316 162.938 26.0839 162.938C25.1891 162.938 24.3943 162.755 23.6995 162.39C23.0166 162.025 22.4809 161.484 22.0923 160.765C21.7155 160.035 21.5271 159.146 21.5271 158.098C21.5271 157.062 21.6978 156.173 22.0393 155.432C22.3926 154.69 22.8812 154.119 23.5053 153.718C24.1411 153.318 24.877 153.118 25.713 153.118ZM25.6954 154.389C24.9536 154.389 24.3648 154.631 23.9292 155.114C23.5053 155.585 23.2521 156.244 23.1697 157.092H27.9915C27.9915 156.55 27.909 156.079 27.7442 155.679C27.5793 155.278 27.3262 154.966 26.9847 154.743C26.655 154.507 26.2252 154.389 25.6954 154.389Z" fill="#8B5CF6"/>
<path d="M43.9623 159.388C43.9623 160.141 43.7798 160.783 43.4148 161.313C43.0498 161.831 42.5258 162.231 41.8428 162.514C41.1717 162.797 40.3769 162.938 39.4585 162.938C38.9875 162.938 38.5341 162.914 38.0985 162.867C37.6746 162.82 37.286 162.755 36.9328 162.673C36.5795 162.579 36.2675 162.467 35.9967 162.337V160.818C36.4206 161.007 36.9445 161.177 37.5686 161.331C38.2044 161.484 38.8579 161.56 39.5291 161.56C40.1532 161.56 40.6771 161.478 41.101 161.313C41.5249 161.148 41.8428 160.913 42.0548 160.606C42.2667 160.3 42.3727 159.941 42.3727 159.529C42.3727 159.117 42.2844 158.77 42.1078 158.487C41.9312 158.204 41.625 157.945 41.1893 157.71C40.7655 157.463 40.1708 157.204 39.4055 156.933C38.8638 156.733 38.3869 156.521 37.9748 156.297C37.5745 156.061 37.2389 155.797 36.9681 155.502C36.6973 155.208 36.4912 154.872 36.3499 154.495C36.2204 154.119 36.1556 153.683 36.1556 153.188C36.1556 152.517 36.3264 151.946 36.6678 151.475C37.0093 150.993 37.4803 150.622 38.0808 150.363C38.6931 150.104 39.3937 149.974 40.1826 149.974C40.8773 149.974 41.5131 150.039 42.0901 150.168C42.6671 150.298 43.1911 150.469 43.662 150.68L43.1675 152.04C42.7318 151.852 42.255 151.693 41.7369 151.564C41.2306 151.434 40.7007 151.369 40.1473 151.369C39.6174 151.369 39.1759 151.446 38.8226 151.599C38.4694 151.752 38.2044 151.97 38.0278 152.252C37.8512 152.523 37.7629 152.841 37.7629 153.206C37.7629 153.63 37.8512 153.983 38.0278 154.266C38.2044 154.548 38.4929 154.802 38.8933 155.025C39.2936 155.249 39.8352 155.49 40.5182 155.749C41.26 156.02 41.8841 156.315 42.3904 156.633C42.9085 156.939 43.297 157.31 43.5561 157.745C43.8269 158.181 43.9623 158.728 43.9623 159.388Z" fill="#8B5CF6"/>
<path d="M49.9467 153.118C50.7592 153.118 51.4539 153.294 52.0309 153.648C52.6196 154.001 53.067 154.501 53.3732 155.149C53.6911 155.785 53.8501 156.532 53.8501 157.392V158.328H47.3681C47.3916 159.4 47.6624 160.218 48.1805 160.783C48.7104 161.336 49.4463 161.613 50.3883 161.613C50.9888 161.613 51.5187 161.56 51.9779 161.454C52.4489 161.336 52.9316 161.172 53.4262 160.96V162.32C52.9434 162.532 52.4665 162.685 51.9955 162.779C51.5245 162.885 50.9652 162.938 50.3176 162.938C49.4227 162.938 48.628 162.755 47.9332 162.39C47.2503 162.025 46.7146 161.484 46.326 160.765C45.9492 160.035 45.7608 159.146 45.7608 158.098C45.7608 157.062 45.9315 156.173 46.273 155.432C46.6262 154.69 47.1149 154.119 47.739 153.718C48.3748 153.318 49.1107 153.118 49.9467 153.118ZM49.9291 154.389C49.1873 154.389 48.5985 154.631 48.1628 155.114C47.739 155.585 47.4858 156.244 47.4034 157.092H52.2251C52.2251 156.55 52.1427 156.079 51.9779 155.679C51.813 155.278 51.5599 154.966 51.2184 154.743C50.8887 154.507 50.4589 154.389 49.9291 154.389Z" fill="#8B5CF6"/>
<path d="M59.8455 153.135C60.9995 153.135 61.8531 153.389 62.4065 153.895C62.9599 154.401 63.2367 155.208 63.2367 156.315V162.761H62.1063L61.806 161.419H61.7354C61.4646 161.76 61.182 162.049 60.8876 162.284C60.605 162.508 60.2753 162.673 59.8985 162.779C59.5335 162.885 59.0861 162.938 58.5562 162.938C57.991 162.938 57.4788 162.838 57.0196 162.638C56.5721 162.437 56.2189 162.131 55.9599 161.719C55.7008 161.295 55.5713 160.765 55.5713 160.13C55.5713 159.188 55.9422 158.463 56.684 157.957C57.4258 157.439 58.568 157.156 60.1105 157.109L61.7177 157.056V156.491C61.7177 155.702 61.547 155.155 61.2055 154.849C60.864 154.543 60.3813 154.389 59.7572 154.389C59.2627 154.389 58.7917 154.466 58.3442 154.619C57.8968 154.76 57.4788 154.925 57.0902 155.114L56.6134 153.948C57.0255 153.724 57.5141 153.536 58.0793 153.383C58.6445 153.218 59.2332 153.135 59.8455 153.135ZM60.3047 158.187C59.1273 158.234 58.3089 158.422 57.8497 158.752C57.4023 159.082 57.1785 159.547 57.1785 160.147C57.1785 160.677 57.3375 161.066 57.6554 161.313C57.9851 161.56 58.4031 161.684 58.9094 161.684C59.7101 161.684 60.3754 161.466 60.9053 161.03C61.4351 160.583 61.7 159.9 61.7 158.982V158.134L60.3047 158.187Z" fill="#8B5CF6"/>
<path d="M70.5761 153.118C70.7527 153.118 70.9411 153.13 71.1413 153.153C71.3532 153.165 71.5357 153.188 71.6888 153.224L71.4945 154.654C71.3415 154.619 71.1707 154.59 70.9823 154.566C70.8057 154.543 70.635 154.531 70.4701 154.531C70.1051 154.531 69.7578 154.607 69.4281 154.76C69.0984 154.913 68.804 155.131 68.545 155.414C68.2859 155.685 68.0799 156.014 67.9268 156.403C67.7855 156.791 67.7148 157.227 67.7148 157.71V162.761H66.1606V153.294H67.4322L67.6089 155.025H67.6795C67.8797 154.672 68.1211 154.354 68.4037 154.072C68.6863 153.777 69.0101 153.548 69.3751 153.383C69.7401 153.206 70.1404 153.118 70.5761 153.118Z" fill="#8B5CF6"/>
<path d="M76.9089 162.938C76.0729 162.938 75.3252 162.767 74.6658 162.426C74.0182 162.084 73.506 161.554 73.1292 160.836C72.7642 160.118 72.5817 159.199 72.5817 158.081C72.5817 156.915 72.776 155.967 73.1646 155.237C73.5531 154.507 74.0771 153.971 74.7365 153.63C75.4077 153.289 76.1671 153.118 77.0149 153.118C77.4977 153.118 77.9628 153.171 78.4102 153.277C78.8577 153.371 79.2227 153.489 79.5053 153.63L79.0284 154.919C78.7458 154.813 78.4161 154.713 78.0393 154.619C77.6625 154.525 77.3093 154.478 76.9796 154.478C76.3438 154.478 75.8198 154.613 75.4077 154.884C74.9955 155.155 74.6894 155.555 74.4892 156.085C74.2891 156.615 74.189 157.274 74.189 158.063C74.189 158.817 74.2891 159.458 74.4892 159.988C74.6894 160.518 74.9897 160.918 75.39 161.189C75.7903 161.46 76.2908 161.595 76.8913 161.595C77.4094 161.595 77.8627 161.543 78.2513 161.437C78.6516 161.331 79.0166 161.201 79.3463 161.048V162.426C79.0284 162.59 78.6752 162.714 78.2866 162.796C77.9098 162.891 77.4506 162.938 76.9089 162.938Z" fill="#8B5CF6"/>
<path d="M83.1519 153.277C83.1519 153.5 83.1402 153.73 83.1166 153.966C83.1049 154.201 83.0872 154.413 83.0636 154.601H83.1696C83.3698 154.272 83.6229 154.001 83.9291 153.789C84.2352 153.577 84.5767 153.418 84.9535 153.312C85.3303 153.194 85.7189 153.135 86.1192 153.135C86.8846 153.135 87.5204 153.259 88.0267 153.506C88.5448 153.742 88.9334 154.113 89.1924 154.619C89.4514 155.125 89.581 155.785 89.581 156.597V162.761H88.0444V156.703C88.0444 155.938 87.8736 155.367 87.5322 154.99C87.1907 154.613 86.6549 154.425 85.9249 154.425C85.2184 154.425 84.665 154.56 84.2647 154.831C83.8643 155.09 83.5758 155.479 83.3992 155.997C83.2344 156.503 83.1519 157.127 83.1519 157.869V162.761H81.5977V149.338H83.1519V153.277Z" fill="#8B5CF6"/>
<path d="M104.346 162.761H97.2985V150.151H104.346V151.546H98.8881V155.484H104.028V156.862H98.8881V161.366H104.346V162.761Z" fill="#8B5CF6"/>
<path d="M111.458 153.118C112.588 153.118 113.442 153.395 114.019 153.948C114.596 154.49 114.884 155.373 114.884 156.597V162.761H113.347V156.703C113.347 155.938 113.177 155.367 112.835 154.99C112.494 154.613 111.958 154.425 111.228 154.425C110.18 154.425 109.456 154.719 109.056 155.308C108.655 155.897 108.455 156.744 108.455 157.851V162.761H106.901V153.294H108.155L108.384 154.584H108.473C108.685 154.254 108.944 153.983 109.25 153.771C109.568 153.548 109.915 153.383 110.292 153.277C110.669 153.171 111.057 153.118 111.458 153.118Z" fill="#8B5CF6"/>
<path d="M121.175 153.118C121.799 153.118 122.358 153.236 122.853 153.471C123.359 153.707 123.789 154.066 124.142 154.548H124.23L124.442 153.294H125.679V162.92C125.679 163.815 125.525 164.563 125.219 165.163C124.913 165.775 124.448 166.235 123.824 166.541C123.2 166.847 122.405 167 121.44 167C120.757 167 120.127 166.947 119.55 166.841C118.985 166.747 118.478 166.6 118.031 166.4V164.969C118.337 165.122 118.673 165.251 119.038 165.357C119.403 165.475 119.797 165.564 120.221 165.622C120.645 165.681 121.08 165.711 121.528 165.711C122.34 165.711 122.976 165.469 123.435 164.987C123.906 164.516 124.142 163.868 124.142 163.044V162.673C124.142 162.532 124.148 162.331 124.16 162.072C124.171 161.802 124.183 161.613 124.195 161.507H124.124C123.795 161.99 123.382 162.349 122.888 162.585C122.405 162.82 121.84 162.938 121.192 162.938C119.968 162.938 119.008 162.508 118.313 161.648C117.63 160.789 117.289 159.588 117.289 158.045C117.289 157.033 117.442 156.162 117.748 155.432C118.066 154.69 118.514 154.119 119.091 153.718C119.668 153.318 120.362 153.118 121.175 153.118ZM121.387 154.425C120.857 154.425 120.403 154.566 120.027 154.849C119.662 155.131 119.379 155.543 119.179 156.085C118.99 156.627 118.896 157.286 118.896 158.063C118.896 159.229 119.108 160.124 119.532 160.748C119.968 161.36 120.598 161.666 121.422 161.666C121.905 161.666 122.317 161.607 122.658 161.49C123 161.36 123.282 161.166 123.506 160.907C123.73 160.636 123.895 160.294 124.001 159.882C124.107 159.47 124.16 158.982 124.16 158.416V158.045C124.16 157.186 124.059 156.491 123.859 155.961C123.671 155.432 123.371 155.043 122.959 154.796C122.546 154.548 122.022 154.425 121.387 154.425Z" fill="#8B5CF6"/>
<path d="M130.239 153.294V162.761H128.685V153.294H130.239ZM129.48 149.744C129.716 149.744 129.922 149.827 130.098 149.992C130.287 150.145 130.381 150.392 130.381 150.733C130.381 151.063 130.287 151.31 130.098 151.475C129.922 151.64 129.716 151.723 129.48 151.723C129.221 151.723 129.003 151.64 128.827 151.475C128.65 151.31 128.562 151.063 128.562 150.733C128.562 150.392 128.65 150.145 128.827 149.992C129.003 149.827 129.221 149.744 129.48 149.744Z" fill="#8B5CF6"/>
<path d="M137.796 153.118C138.926 153.118 139.78 153.395 140.357 153.948C140.934 154.49 141.222 155.373 141.222 156.597V162.761H139.685V156.703C139.685 155.938 139.515 155.367 139.173 154.99C138.832 154.613 138.296 154.425 137.566 154.425C136.518 154.425 135.794 154.719 135.394 155.308C134.993 155.897 134.793 156.744 134.793 157.851V162.761H133.239V153.294H134.493L134.722 154.584H134.811C135.023 154.254 135.282 153.983 135.588 153.771C135.906 153.548 136.253 153.383 136.63 153.277C137.007 153.171 137.395 153.118 137.796 153.118Z" fill="#8B5CF6"/>
<path d="M147.813 153.118C148.625 153.118 149.32 153.294 149.897 153.648C150.486 154.001 150.933 154.501 151.239 155.149C151.557 155.785 151.716 156.532 151.716 157.392V158.328H145.234C145.258 159.4 145.529 160.218 146.047 160.783C146.577 161.336 147.312 161.613 148.254 161.613C148.855 161.613 149.385 161.56 149.844 161.454C150.315 161.336 150.798 161.172 151.292 160.96V162.32C150.81 162.532 150.333 162.685 149.862 162.779C149.391 162.885 148.831 162.938 148.184 162.938C147.289 162.938 146.494 162.755 145.799 162.39C145.116 162.025 144.581 161.484 144.192 160.765C143.815 160.035 143.627 159.146 143.627 158.098C143.627 157.062 143.798 156.173 144.139 155.432C144.492 154.69 144.981 154.119 145.605 153.718C146.241 153.318 146.977 153.118 147.813 153.118ZM147.795 154.389C147.053 154.389 146.465 154.631 146.029 155.114C145.605 155.585 145.352 156.244 145.27 157.092H150.091C150.091 156.55 150.009 156.079 149.844 155.679C149.679 155.278 149.426 154.966 149.085 154.743C148.755 154.507 148.325 154.389 147.795 154.389Z" fill="#8B5CF6"/>
<path d="M163.06 154.495H160.675V162.761H159.121V154.495H157.461V153.771L159.121 153.241V152.694C159.121 151.882 159.239 151.222 159.474 150.716C159.721 150.21 160.075 149.839 160.534 149.603C160.993 149.368 161.547 149.25 162.194 149.25C162.571 149.25 162.912 149.285 163.219 149.356C163.536 149.415 163.807 149.485 164.031 149.568L163.625 150.786C163.436 150.728 163.219 150.669 162.971 150.61C162.724 150.551 162.471 150.522 162.212 150.522C161.694 150.522 161.305 150.698 161.046 151.051C160.799 151.393 160.675 151.934 160.675 152.676V153.294H163.06V154.495Z" fill="#8B5CF6"/>
<path d="M172.999 158.01C172.999 158.799 172.893 159.5 172.681 160.112C172.481 160.712 172.186 161.225 171.798 161.648C171.421 162.072 170.956 162.396 170.403 162.62C169.861 162.832 169.255 162.938 168.583 162.938C167.959 162.938 167.382 162.832 166.853 162.62C166.323 162.396 165.863 162.072 165.475 161.648C165.086 161.225 164.78 160.712 164.556 160.112C164.345 159.5 164.239 158.799 164.239 158.01C164.239 156.962 164.415 156.079 164.768 155.361C165.122 154.631 165.628 154.077 166.287 153.701C166.947 153.312 167.73 153.118 168.636 153.118C169.496 153.118 170.25 153.312 170.897 153.701C171.557 154.077 172.069 154.631 172.434 155.361C172.811 156.079 172.999 156.962 172.999 158.01ZM165.846 158.01C165.846 158.752 165.94 159.4 166.128 159.953C166.329 160.495 166.635 160.913 167.047 161.207C167.459 161.501 167.983 161.648 168.619 161.648C169.255 161.648 169.779 161.501 170.191 161.207C170.603 160.913 170.903 160.495 171.091 159.953C171.292 159.4 171.392 158.752 171.392 158.01C171.392 157.257 171.292 156.615 171.091 156.085C170.891 155.555 170.585 155.149 170.173 154.866C169.773 154.572 169.249 154.425 168.601 154.425C167.636 154.425 166.935 154.743 166.499 155.379C166.064 156.014 165.846 156.892 165.846 158.01Z" fill="#8B5CF6"/>
<path d="M179.878 153.118C180.054 153.118 180.243 153.13 180.443 153.153C180.655 153.165 180.837 153.188 180.991 153.224L180.796 154.654C180.643 154.619 180.472 154.59 180.284 154.566C180.107 154.543 179.937 154.531 179.772 154.531C179.407 154.531 179.059 154.607 178.73 154.76C178.4 154.913 178.106 155.131 177.847 155.414C177.588 155.685 177.382 156.014 177.229 156.403C177.087 156.791 177.017 157.227 177.017 157.71V162.761H175.462V153.294H176.734L176.911 155.025H176.981C177.181 154.672 177.423 154.354 177.705 154.072C177.988 153.777 178.312 153.548 178.677 153.383C179.042 153.206 179.442 153.118 179.878 153.118Z" fill="#8B5CF6"/>
<path d="M189.131 162.761H187.541V150.151H194.588V151.546H189.131V156.014H194.253V157.41H189.131V162.761Z" fill="#8B5CF6"/>
<path d="M200.073 153.135C201.227 153.135 202.081 153.389 202.634 153.895C203.188 154.401 203.464 155.208 203.464 156.315V162.761H202.334L202.034 161.419H201.963C201.692 161.76 201.41 162.049 201.115 162.284C200.833 162.508 200.503 162.673 200.126 162.779C199.761 162.885 199.314 162.938 198.784 162.938C198.219 162.938 197.706 162.838 197.247 162.638C196.8 162.437 196.447 162.131 196.188 161.719C195.929 161.295 195.799 160.765 195.799 160.13C195.799 159.188 196.17 158.463 196.912 157.957C197.654 157.439 198.796 157.156 200.338 157.109L201.945 157.056V156.491C201.945 155.702 201.775 155.155 201.433 154.849C201.092 154.543 200.609 154.389 199.985 154.389C199.49 154.389 199.019 154.466 198.572 154.619C198.125 154.76 197.706 154.925 197.318 155.114L196.841 153.948C197.253 153.724 197.742 153.536 198.307 153.383C198.872 153.218 199.461 153.135 200.073 153.135ZM200.532 158.187C199.355 158.234 198.537 158.422 198.077 158.752C197.63 159.082 197.406 159.547 197.406 160.147C197.406 160.677 197.565 161.066 197.883 161.313C198.213 161.56 198.631 161.684 199.137 161.684C199.938 161.684 200.603 161.466 201.133 161.03C201.663 160.583 201.928 159.9 201.928 158.982V158.134L200.532 158.187Z" fill="#8B5CF6"/>
<path d="M212.552 160.147C212.552 160.76 212.399 161.272 212.093 161.684C211.787 162.096 211.351 162.408 210.786 162.62C210.221 162.832 209.55 162.938 208.773 162.938C208.113 162.938 207.542 162.885 207.059 162.779C206.588 162.673 206.17 162.526 205.805 162.337V160.924C206.182 161.113 206.636 161.289 207.165 161.454C207.707 161.607 208.255 161.684 208.808 161.684C209.597 161.684 210.168 161.56 210.521 161.313C210.874 161.054 211.051 160.712 211.051 160.289C211.051 160.053 210.986 159.841 210.857 159.653C210.727 159.464 210.492 159.276 210.15 159.088C209.821 158.899 209.344 158.687 208.72 158.452C208.107 158.216 207.583 157.981 207.148 157.745C206.712 157.51 206.377 157.227 206.141 156.897C205.906 156.568 205.788 156.144 205.788 155.626C205.788 154.825 206.112 154.207 206.759 153.771C207.419 153.336 208.278 153.118 209.338 153.118C209.915 153.118 210.451 153.177 210.945 153.294C211.451 153.4 211.922 153.553 212.358 153.754L211.828 154.99C211.569 154.872 211.292 154.772 210.998 154.69C210.715 154.596 210.427 154.525 210.133 154.478C209.838 154.419 209.538 154.389 209.232 154.389C208.596 154.389 208.107 154.495 207.766 154.707C207.436 154.908 207.271 155.184 207.271 155.537C207.271 155.797 207.348 156.02 207.501 156.209C207.654 156.385 207.907 156.562 208.26 156.738C208.625 156.903 209.108 157.104 209.709 157.339C210.309 157.563 210.821 157.792 211.245 158.028C211.669 158.263 211.993 158.552 212.217 158.893C212.441 159.223 212.552 159.641 212.552 160.147Z" fill="#8B5CF6"/>
<path d="M216.394 153.277C216.394 153.5 216.382 153.73 216.359 153.966C216.347 154.201 216.329 154.413 216.306 154.601H216.412C216.612 154.272 216.865 154.001 217.171 153.789C217.477 153.577 217.819 153.418 218.196 153.312C218.572 153.194 218.961 153.135 219.361 153.135C220.127 153.135 220.763 153.259 221.269 153.506C221.787 153.742 222.176 154.113 222.435 154.619C222.694 155.125 222.823 155.785 222.823 156.597V162.761H221.287V156.703C221.287 155.938 221.116 155.367 220.774 154.99C220.433 154.613 219.897 154.425 219.167 154.425C218.461 154.425 217.907 154.56 217.507 154.831C217.107 155.09 216.818 155.479 216.641 155.997C216.477 156.503 216.394 157.127 216.394 157.869V162.761H214.84V149.338H216.394V153.277Z" fill="#8B5CF6"/>
<path d="M227.312 153.294V162.761H225.758V153.294H227.312ZM226.553 149.744C226.788 149.744 226.994 149.827 227.171 149.992C227.359 150.145 227.454 150.392 227.454 150.733C227.454 151.063 227.359 151.31 227.171 151.475C226.994 151.64 226.788 151.723 226.553 151.723C226.294 151.723 226.076 151.64 225.899 151.475C225.723 151.31 225.634 151.063 225.634 150.733C225.634 150.392 225.723 150.145 225.899 149.992C226.076 149.827 226.294 149.744 226.553 149.744Z" fill="#8B5CF6"/>
<path d="M238.542 158.01C238.542 158.799 238.436 159.5 238.224 160.112C238.024 160.712 237.73 161.225 237.341 161.648C236.964 162.072 236.499 162.396 235.946 162.62C235.404 162.832 234.798 162.938 234.127 162.938C233.502 162.938 232.926 162.832 232.396 162.62C231.866 162.396 231.407 162.072 231.018 161.648C230.629 161.225 230.323 160.712 230.1 160.112C229.888 159.5 229.782 158.799 229.782 158.01C229.782 156.962 229.958 156.079 230.311 155.361C230.665 154.631 231.171 154.077 231.83 153.701C232.49 153.312 233.273 153.118 234.179 153.118C235.039 153.118 235.793 153.312 236.44 153.701C237.1 154.077 237.612 154.631 237.977 155.361C238.354 156.079 238.542 156.962 238.542 158.01ZM231.389 158.01C231.389 158.752 231.483 159.4 231.671 159.953C231.872 160.495 232.178 160.913 232.59 161.207C233.002 161.501 233.526 161.648 234.162 161.648C234.798 161.648 235.322 161.501 235.734 161.207C236.146 160.913 236.446 160.495 236.635 159.953C236.835 159.4 236.935 158.752 236.935 158.01C236.935 157.257 236.835 156.615 236.635 156.085C236.434 155.555 236.128 155.149 235.716 154.866C235.316 154.572 234.792 154.425 234.144 154.425C233.179 154.425 232.478 154.743 232.042 155.379C231.607 156.014 231.389 156.892 231.389 158.01Z" fill="#8B5CF6"/>
<path d="M245.562 153.118C246.693 153.118 247.546 153.395 248.123 153.948C248.7 154.49 248.989 155.373 248.989 156.597V162.761H247.452V156.703C247.452 155.938 247.281 155.367 246.94 154.99C246.598 154.613 246.063 154.425 245.333 154.425C244.285 154.425 243.561 154.719 243.16 155.308C242.76 155.897 242.56 156.744 242.56 157.851V162.761H241.005V153.294H242.259L242.489 154.584H242.577C242.789 154.254 243.048 153.983 243.354 153.771C243.672 153.548 244.02 153.383 244.396 153.277C244.773 153.171 245.162 153.118 245.562 153.118Z" fill="#8B5CF6"/>
</svg>
