<svg width="14" height="14" viewBox="0 0 14 14" fill="none" xmlns="http://www.w3.org/2000/svg">
<path d="M4.13333 9.86671C4.25555 9.98893 4.41111 10.05 4.59999 10.05C4.78888 10.05 4.94444 9.98893 5.06666 9.86671L6.99999 7.93337L8.94999 9.88337C9.07222 10.0056 9.22511 10.0638 9.40866 10.058C9.59177 10.0527 9.74444 9.98893 9.86666 9.86671C9.98888 9.74448 10.05 9.58893 10.05 9.40004C10.05 9.21115 9.98888 9.0556 9.86666 8.93337L7.93333 7.00004L9.88333 5.05004C10.0056 4.92782 10.0638 4.77493 10.058 4.59137C10.0527 4.40826 9.98888 4.2556 9.86666 4.13337C9.74444 4.01115 9.58888 3.95004 9.39999 3.95004C9.21111 3.95004 9.05555 4.01115 8.93333 4.13337L6.99999 6.06671L5.04999 4.11671C4.92777 3.99449 4.77511 3.93604 4.59199 3.94137C4.40844 3.94715 4.25555 4.01115 4.13333 4.13337C4.01111 4.2556 3.94999 4.41115 3.94999 4.60004C3.94999 4.78893 4.01111 4.94449 4.13333 5.06671L6.06666 7.00004L4.11666 8.95004C3.99444 9.07226 3.93622 9.22493 3.94199 9.40804C3.94733 9.5916 4.01111 9.74448 4.13333 9.86671ZM6.99999 13.6667C6.07777 13.6667 5.21111 13.4916 4.39999 13.1414C3.58888 12.7916 2.88333 12.3167 2.28333 11.7167C1.68333 11.1167 1.20844 10.4112 0.858662 9.60004C0.508439 8.78893 0.333328 7.92226 0.333328 7.00004C0.333328 6.07782 0.508439 5.21115 0.858662 4.40004C1.20844 3.58893 1.68333 2.88337 2.28333 2.28337C2.88333 1.68337 3.58888 1.20826 4.39999 0.858041C5.21111 0.508263 6.07777 0.333374 6.99999 0.333374C7.92222 0.333374 8.78888 0.508263 9.59999 0.858041C10.4111 1.20826 11.1167 1.68337 11.7167 2.28337C12.3167 2.88337 12.7915 3.58893 13.1413 4.40004C13.4915 5.21115 13.6667 6.07782 13.6667 7.00004C13.6667 7.92226 13.4915 8.78893 13.1413 9.60004C12.7915 10.4112 12.3167 11.1167 11.7167 11.7167C11.1167 12.3167 10.4111 12.7916 9.59999 13.1414C8.78888 13.4916 7.92222 13.6667 6.99999 13.6667ZM6.99999 12.3334C8.47777 12.3334 9.73622 11.814 10.7753 10.7754C11.814 9.73626 12.3333 8.47782 12.3333 7.00004C12.3333 5.52226 11.814 4.26382 10.7753 3.22471C9.73622 2.18604 8.47777 1.66671 6.99999 1.66671C5.52222 1.66671 4.26399 2.18604 3.22533 3.22471C2.18622 4.26382 1.66666 5.52226 1.66666 7.00004C1.66666 8.47782 2.18622 9.73626 3.22533 10.7754C4.26399 11.814 5.52222 12.3334 6.99999 12.3334Z" fill="white"/>
</svg>
